Coordinates
version=1
nRows=17
nColumns=24
inDegrees=yes

Units are S.I. units (second, meters, Newtons, ...)
Angles are in degrees.

endheader
time	pelvis_tilt	pelvis_list	pelvis_rotation	pelvis_tx	pelvis_ty	pelvis_tz	hip_flexion_r	hip_adduction_r	hip_rotation_r	knee_angle_r	ankle_angle_r	subtalar_angle_r	mtp_angle_r	hip_flexion_l	hip_adduction_l	hip_rotation_l	knee_angle_l	ankle_angle_l	subtalar_angle_l	mtp_angle_l	lumbar_extension	lumbar_bending	lumbar_rotation
      3.72000000	    -10.33436940	     -4.61419818	     -1.00194561	     -1.29079896	     -0.01172451	      0.49514447	      5.78758070	     10.13692117	     11.99821397	     -7.89974703	      0.93628488	     -8.61823725	     -0.75162454	     36.75207059	     -5.50206682	     -0.29329308	    -53.51202043	     -6.96929634	      5.44795801	     22.75553716	      8.29828489	      4.19997826	      8.29959194
      3.72500000	    -10.36981166	     -4.38537400	     -1.14038395	     -1.28366525	     -0.01213919	      0.49563054	      5.24323268	      9.92806389	     12.32180502	     -7.71002091	      1.14828768	     -8.80438943	     -0.95079881	     37.19983621	     -5.27319986	     -0.38869845	    -52.18410367	     -6.68809211	      5.29343858	     22.15491001	      8.31713892	      3.95216176	      8.58530309
      3.73000000	    -10.40414686	     -4.17279330	     -1.28497805	     -1.27653879	     -0.01265010	      0.49614006	      4.71400706	      9.73514862	     12.60114963	     -7.54484946	      1.40086536	     -8.93723586	     -1.09744905	     37.62009318	     -5.07750961	     -0.49617975	    -50.80545454	     -6.42081999	      5.09393647	     21.46199597	      8.32938451	      3.72123466	      8.86693882
      3.73500000	    -10.45502446	     -3.97602824	     -1.43586371	     -1.26940978	     -0.01326941	      0.49664205	      4.21890393	      9.55591315	     12.83596508	     -7.40309316	      1.68148251	     -9.02201826	     -1.17172644	     38.03037199	     -4.91380063	     -0.61555035	    -49.37073264	     -6.17571259	      4.86571259	     20.76183964	      8.35838749	      3.51387177	      9.13371761
      3.74000000	    -10.44340754	     -3.79463976	     -1.56787851	     -1.26231208	     -0.01390083	      0.49713434	      3.68008560	      9.39051837	     13.01623476	     -7.30295412	      1.99308602	     -9.05778574	     -1.23728230	     38.34305684	     -4.75842726	     -0.70416595	    -47.90135843	     -5.83859412	      4.71937612	     19.73134650	      8.31109012	      3.30779723	      9.41156605
      3.74500000	    -10.52357595	     -3.63966390	     -1.76702636	     -1.25523117	     -0.01467412	      0.49768946	      3.25223731	      9.25752235	     13.24848847	     -7.22018119	      2.27304726	     -9.05536067	     -1.21516745	     38.71815718	     -4.68712867	     -0.84692822	    -46.34714095	     -5.66632057	      4.45397505	     19.01462459	      8.35696369	      3.15072908	      9.71690977
      3.75000000	    -10.51058318	     -3.48047645	     -1.91082467	     -1.24808783	     -0.01543079	      0.49816630	      2.72747607	      9.11132439	     13.36116130	     -7.14157386	      2.58797795	     -9.03289621	     -1.18675063	     38.95308736	     -4.58986444	     -0.97421631	    -44.75996320	     -5.31761913	      4.38553415	     17.91162146	      8.30805098	      2.97456349	      9.95971274
      3.75500000	    -10.65339362	     -3.35899487	     -2.09486398	     -1.24103681	     -0.01642631	      0.49871379	      2.41058156	      9.02447682	     13.53985559	     -7.13274642	      2.86754960	     -9.08784392	     -1.13821806	     39.32871826	     -4.56763686	     -1.07194611	    -43.07044694	     -5.20113481	      4.25095540	     17.46409224	      8.41229821	      2.84644172	     10.22813726
      3.76000000	    -10.56751568	     -3.22852858	     -2.29480118	     -1.23390789	     -0.01721311	      0.49917479	      1.82232986	      8.90414768	     13.66508292	     -7.08577916	      3.19207743	     -9.00481770	     -1.10327250	     39.39838648	     -4.55628943	     -1.29038559	    -41.38076158	     -4.83339297	      4.21702756	     16.18779890	      8.26999548	      2.71898418	     10.54259477
      3.76500000	    -10.65020941	     -3.14976157	     -2.54419452	     -1.22689643	     -0.01825455	      0.49970763	      1.45809303	      8.86025220	     13.86855733	     -7.11463222	      3.48338692	     -9.00438554	     -1.06617446	     39.62375958	     -4.64106793	     -1.48406559	    -39.60400846	     -4.67204427	      4.17180505	     15.53791012	      8.29075167	      2.65727184	     10.89795471
      3.77000000	    -10.63084061	     -3.04720057	     -2.72419098	     -1.21974683	     -0.01923878	      0.50016080	      0.96616179	      8.77954525	     13.94125884	     -7.11634562	      3.78900343	     -8.99218145	     -1.09780024	     39.68533929	     -4.67212774	     -1.67945465	    -37.78701119	     -4.36966348	      4.33466848	     14.59101609	      8.21763726	      2.54894307	     11.15750082
      3.77500000	    -10.72577325	     -2.99143129	     -2.97657169	     -1.21267457	     -0.02039896	      0.50066786	      0.61566349	      8.75570529	     14.12502690	     -7.15543033	      4.07440601	     -8.97381721	     -1.07195871	     39.83760686	     -4.80789044	     -1.90878898	    -35.91064508	     -4.24496197	      4.45245477	     14.08557438	      8.25382604	      2.50954858	     11.46699618
      3.78000000	    -10.75969500	     -2.92338902	     -3.20234430	     -1.20555913	     -0.02152651	      0.50109296	      0.19500019	      8.70605579	     14.25353068	     -7.18728415	      4.35821391	     -8.93033956	     -1.06625507	     39.87641139	     -4.91928984	     -2.15141470	    -33.99226181	     -4.10655683	      4.66924363	     13.52556207	      8.22220947	      2.46241379	     11.77725921
      3.78500000	    -10.69959100	     -2.85450250	     -3.39338162	     -1.19845980	     -0.02261304	      0.50146124	     -0.31903899	      8.64583373	     14.30022378	     -7.23612068	      4.69747542	     -8.82799500	     -1.13425522	     39.78615018	     -5.00269304	     -2.36875074	    -32.08612330	     -3.88414938	      4.99855871	     12.65532512	      8.08299839	      2.39129234	     12.04723992
      3.79000000	    -10.82604962	     -2.81936538	     -3.63774439	     -1.19137192	     -0.02394915	      0.50189839	     -0.61595304	      8.63506112	     14.41677375	     -7.31587612	      4.98548651	     -8.77376896	     -1.06167744	     39.87329702	     -5.17609000	     -2.65663928	    -30.13795313	     -3.86254413	      5.28440830	     12.35347870	      8.13835180	      2.37864874	     12.34709704
      3.79500000	    -10.85519769	     -2.76128460	     -3.89755288	     -1.18425604	     -0.02518909	      0.50232563	     -1.02624157	      8.57939881	     14.51496338	     -7.38071439	      5.29452009	     -8.61401631	     -0.95855249	     39.81566665	     -5.33789107	     -3.01373378	    -28.19063497	     -3.84099142	      5.60357627	     12.02065379	      8.08802369	      2.33996596	     12.68207914
      3.80000000	    -10.86175224	     -2.69772026	     -4.13570095	     -1.17711000	     -0.02643653	      0.50267886	     -1.46219645	      8.50255236	     14.57005277	     -7.44187618	      5.61274928	     -8.39699402	     -0.81610109	     39.71744525	     -5.47562497	     -3.39763270	    -26.26847746	     -3.84752203	      5.92852040	     11.70851250	      8.01486863	      2.29232669	     12.98685933
